<svg width="48" height="48" viewBox="0 0 48 48" fill="none" xmlns="http://www.w3.org/2000/svg">
<rect x="0.5" y="0.5" width="47" height="47" rx="23.5" stroke="#C2C6D8"/>
<path d="M29.0502 32.28C28.0702 33.23 27.0002 33.08 25.9702 32.63C24.8802 32.17 23.8802 32.15 22.7302 32.63C21.2902 33.25 20.5302 33.07 19.6702 32.28C14.7902 27.25 15.5102 19.59 21.0502 19.31C22.4002 19.38 23.3402 20.05 24.1302 20.11C25.3102 19.92 26.4402 19.23 27.6302 18.96C29.7702 18.45 31.4202 19 32.4702 20.36C28.2302 22.58 29.1402 28.18 33.5602 29.86C32.4802 31.34 31.3402 32.87 29.0502 32.28ZM24.0302 19.25C23.8802 17.02 25.6902 15.18 27.7702 15C28.0602 17.58 25.4302 19.5 24.0302 19.25Z" fill="#1C1B1B"/>
</svg>
